<?xml version="1.0"?>
<svg xmlns="http://www.w3.org/2000/svg" id="Capa_1" enable-background="new 0 0 512 512" height="512px" viewBox="0 0 512 512" width="512px"><g><path d="m99.979 44.944h54.652v-16.271c0-6.832 2.778-13.039 7.285-17.547 4.479-4.479 10.686-7.285 17.547-7.285 6.831 0 13.04 2.807 17.518 7.285 4.507 4.508 7.313 10.715 7.313 17.547v16.271h54.624v-16.271c0-6.832 2.807-13.039 7.285-17.547 4.507-4.479 10.715-7.285 17.546-7.285 6.832 0 13.04 2.807 17.548 7.285 4.507 4.508 7.285 10.715 7.285 17.547v16.271h54.651v-16.073c0-6.831 2.778-13.04 7.285-17.547 4.478-4.478 10.686-7.284 17.548-7.284 6.831 0 13.039 2.806 17.518 7.284 4.508 4.507 7.314 10.716 7.314 17.547v16.073h8.221c11.594 0 22.11 4.733 29.735 12.331 7.625 7.625 12.359 18.142 12.359 29.734v78.153c0 4.139-3.373 7.512-7.512 7.512s-7.512-3.373-7.512-7.512v-21.629h-199.59c-4.167 0-7.512-3.345-7.512-7.483 0-4.167 3.345-7.512 7.512-7.512h199.59v-41.528c0-7.455-3.033-14.201-7.938-19.106-4.933-4.932-11.679-7.965-19.134-7.965h-8.221v16.045c0 6.831-2.806 13.039-7.314 17.546-4.479 4.507-10.686 7.285-17.518 7.285-6.861 0-13.069-2.778-17.548-7.285-4.507-4.507-7.285-10.715-7.285-17.546v-16.045h-54.651v15.846c0 6.832-2.778 13.039-7.285 17.547-4.508 4.479-10.716 7.285-17.548 7.285-6.831 0-13.039-2.807-17.546-7.285-4.479-4.508-7.285-10.715-7.285-17.547v-15.846h-54.624v15.846c0 6.832-2.806 13.039-7.313 17.547-4.479 4.479-10.687 7.285-17.518 7.285-6.86 0-13.068-2.807-17.547-7.285-4.507-4.508-7.285-10.715-7.285-17.547v-15.846h-54.65v15.846c0 6.832-2.807 13.039-7.285 17.547-4.507 4.479-10.715 7.285-17.547 7.285-6.831 0-13.04-2.807-17.547-7.285-4.479-4.508-7.285-10.715-7.285-17.547v-15.846h-8.249c-7.427 0-14.202 3.033-19.105 7.965-4.904 4.904-7.966 11.65-7.966 19.106v41.529h199.619c4.139 0 7.512 3.345 7.512 7.512 0 4.139-3.373 7.483-7.512 7.483h-199.618v221.473c0 4.139-3.345 7.484-7.483 7.484-4.139 0-7.512-3.346-7.512-7.484v-277.997c-.001-11.593 4.733-22.11 12.358-29.735 7.625-7.598 18.142-12.331 29.707-12.331h8.249v-16.271c0-6.832 2.778-13.039 7.285-17.547 4.507-4.479 10.716-7.285 17.547-7.285 6.832 0 13.039 2.807 17.547 7.285 4.479 4.508 7.285 10.715 7.285 17.547zm298.889 291.518c0-4.139 3.345-7.483 7.483-7.483 4.167 0 7.512 3.345 7.512 7.483v66.048c0 2.041-.794 3.855-2.126 5.217l-45.837 53.914c-2.665 3.176-7.37 3.572-10.545.879-3.146-2.664-3.544-7.369-.879-10.545l44.392-52.186zm-45.723-7.342c-3.374 2.438-8.051 1.673-10.46-1.672-2.438-3.346-1.701-8.022 1.672-10.46 8.845-6.435 18.737-11.509 29.396-14.967 10.291-3.346 21.261-5.16 32.6-5.16 14.882 0 29.027 3.062 41.84 8.618v-106.357c0-4.139 3.373-7.484 7.512-7.484s7.512 3.346 7.512 7.484v114.322c6.463 4.139 12.444 8.958 17.858 14.372 19.105 19.106 30.925 45.525 30.925 74.694s-11.82 55.588-30.927 74.694c-19.134 19.135-45.524 30.955-74.722 30.955-29.169 0-55.56-11.82-74.694-30.955-7.256-7.257-13.464-15.564-18.368-24.69h-274.284c-10.743 0-20.495-4.365-27.553-11.424-7.058-7.086-11.452-16.81-11.452-27.553v-14.57c0-4.139 3.374-7.482 7.512-7.482s7.483 3.344 7.483 7.482v14.57c0 6.576 2.721 12.586 7.059 16.923 4.365 4.365 10.347 7.059 16.951 7.059h267.651c-3.855-10.942-5.953-22.733-5.953-35.009 0-10.771 1.645-21.204 4.678-31.067 3.146-10.177 7.767-19.701 13.606-28.291 2.324-3.43 7.001-4.309 10.402-1.983 3.402 2.324 4.28 7.001 1.956 10.403-5.017 7.398-8.985 15.562-11.679 24.265-2.551 8.391-3.939 17.349-3.939 26.674 0 25.031 10.147 47.708 26.531 64.092 16.413 16.413 39.062 26.561 64.093 26.561 25.03 0 47.707-10.148 64.119-26.561 16.386-16.384 26.534-39.061 26.534-64.092 0-25.03-10.148-47.708-26.534-64.092-16.412-16.413-39.089-26.561-64.119-26.561-9.779 0-19.19 1.56-27.979 4.394-9.127 2.976-17.631 7.341-25.227 12.868zm-32.826-153.753h88.555c4.139 0 7.513 3.345 7.513 7.483v88.556c0 4.167-3.374 7.512-7.513 7.512h-88.555c-4.139 0-7.512-3.345-7.512-7.512v-88.556c.001-4.138 3.374-7.483 7.512-7.483zm81.072 14.995h-73.56v73.561h73.56zm-214.076 111.773h88.556c4.167 0 7.512 3.373 7.512 7.512v88.555c0 4.139-3.345 7.512-7.512 7.512h-88.556c-4.139 0-7.483-3.373-7.483-7.512v-88.555c0-4.139 3.345-7.512 7.483-7.512zm81.073 15.023h-73.56v73.561h73.56zm-81.073-141.791h88.556c4.167 0 7.512 3.345 7.512 7.483v88.556c0 4.167-3.345 7.512-7.512 7.512h-88.556c-4.139 0-7.483-3.345-7.483-7.512v-88.556c0-4.138 3.345-7.483 7.483-7.483zm81.073 14.995h-73.56v73.561h73.56zm-214.076 111.773h88.583c4.139 0 7.484 3.373 7.484 7.512v88.555c0 4.139-3.345 7.512-7.484 7.512h-88.583c-4.139 0-7.483-3.373-7.483-7.512v-88.555c0-4.139 3.345-7.512 7.483-7.512zm81.072 15.023h-73.56v73.561h73.56zm-81.072-141.791h88.583c4.139 0 7.484 3.345 7.484 7.483v88.556c0 4.167-3.345 7.512-7.484 7.512h-88.583c-4.139 0-7.483-3.345-7.483-7.512v-88.556c0-4.138 3.345-7.483 7.483-7.483zm81.072 14.995h-73.56v73.561h73.56zm252.684-171.299c-2.693 0-5.16 1.105-6.946 2.891-1.785 1.786-2.891 4.225-2.891 6.917v23.557 23.557c0 2.692 1.105 5.158 2.891 6.944s4.253 2.892 6.946 2.892c2.692 0 5.131-1.105 6.916-2.892 1.786-1.786 2.892-4.252 2.892-6.944v-23.557-23.557c0-2.692-1.105-5.131-2.892-6.917-1.785-1.785-4.223-2.891-6.916-2.891zm-305.975 2.665c-1.786-1.785-4.252-2.891-6.945-2.891-2.692 0-5.159 1.105-6.945 2.891s-2.891 4.252-2.891 6.945v23.755 23.358c0 2.693 1.105 5.159 2.891 6.945 1.786 1.785 4.253 2.891 6.945 2.891 2.693 0 5.159-1.105 6.945-2.891s2.891-4.252 2.891-6.945v-23.358-23.755c0-2.694-1.106-5.159-2.891-6.945zm97.371-2.891c-2.722 0-5.159 1.105-6.945 2.891s-2.891 4.252-2.891 6.945v23.755 23.358c0 2.693 1.105 5.159 2.891 6.945 1.786 1.785 4.224 2.891 6.945 2.891 2.692 0 5.13-1.105 6.916-2.891s2.892-4.252 2.892-6.945v-23.358-23.755c0-2.693-1.105-5.159-2.892-6.945-1.786-1.786-4.224-2.891-6.916-2.891zm104.287 0c-2.692 0-5.159 1.105-6.944 2.891-1.786 1.786-2.892 4.252-2.892 6.945v23.755 23.358c0 2.693 1.105 5.159 2.892 6.945 1.785 1.785 4.252 2.891 6.944 2.891 2.693 0 5.159-1.105 6.945-2.891s2.892-4.252 2.892-6.945v-23.358-23.755c0-2.693-1.105-5.159-2.892-6.945-1.786-1.786-4.252-2.891-6.945-2.891z" fill="#2D3092"/></g></svg>
