<?xml version="1.0"?>
<svg xmlns="http://www.w3.org/2000/svg" id="Layer_5" enable-background="new 0 0 64 64" height="512px" viewBox="0 0 64 64" width="512px"><path d="m50 51h-5.692c4.148-4.464 6.692-10.439 6.692-17 0-5.44-1.768-10.688-5.006-15h8.006c4.962 0 9-4.038 9-9s-4.038-9-9-9h-6c-4.962 0-9 4.038-9 9v2.643c-3.909-2.388-8.365-3.643-13-3.643-13.785 0-25 11.215-25 25 0 6.33 2.409 12.398 6.676 17h-.676v2h19c10.477 0 19-8.523 19-19s-8.523-19-19-19-19 8.523-19 19c0 7.43 4.288 13.878 10.519 17h-7c-4.78-4.356-7.519-10.528-7.519-17 0-12.682 10.318-23 23-23 4.684 0 9.163 1.404 13 4.041v3.959h4.416c3.596 4.172 5.584 9.476 5.584 15 0 12.682-10.318 23-23 23h-17v2h17 24v3.766l12.944-7.766-12.944-7.766zm-41-17c0-9.374 7.626-17 17-17s17 7.626 17 17-7.626 17-17 17-17-7.626-17-17zm32-24c0-3.86 3.14-7 7-7h6c3.86 0 7 3.14 7 7s-3.14 7-7 7h-13zm11 40.766 7.056 4.234-7.056 4.234v-2.234h-16.207c2.35-1.004 4.512-2.362 6.428-4h9.779z" fill="#2D3092"/><path d="m3 51h2v2h-2z" fill="#2D3092"/><path d="m1 57h2v2h-2z" fill="#2D3092"/><path d="m5 57h2v2h-2z" fill="#2D3092"/><path d="m41 34c0-8.271-6.729-15-15-15s-15 6.729-15 15 6.729 15 15 15 15-6.729 15-15zm-22.071 5.657-2.791 2.791c-1.747-2.036-2.871-4.615-3.088-7.447h3.95v-2h-3.949c.217-2.833 1.341-5.411 3.088-7.447l2.791 2.791 1.414-1.414-2.791-2.791c2.036-1.747 4.615-2.871 7.447-3.088v3.948h2v-3.949c2.833.217 5.411 1.341 7.447 3.088l-2.791 2.791 1.414 1.414 2.791-2.791c1.747 2.036 2.871 4.615 3.088 7.447h-3.949v2h3.949c-.217 2.833-1.341 5.411-3.088 7.447l-2.791-2.791-1.414 1.414 2.791 2.791c-2.036 1.747-4.615 2.871-7.447 3.088v-3.949h-2v3.949c-2.833-.217-5.411-1.341-7.447-3.088l2.791-2.791z" fill="#2D3092"/><path d="m26 37c.462 0 .894-.113 1.285-.301l2.008 2.008 1.414-1.414-2.008-2.008c.188-.391.301-.823.301-1.285 0-1.302-.839-2.402-2-2.816v-4.184h-2v4.184c-1.161.414-2 1.514-2 2.816 0 1.654 1.346 3 3 3zm0-4c.551 0 1 .449 1 1s-.449 1-1 1-1-.449-1-1 .449-1 1-1z" fill="#2D3092"/><path d="m46 5h10v2h-10z" fill="#2D3092"/><path d="m46 9h10v2h-10z" fill="#2D3092"/><path d="m54 13h2v2h-2z" fill="#2D3092"/><path d="m50 13h2v2h-2z" fill="#2D3092"/><path d="m46 13h2v2h-2z" fill="#2D3092"/></svg>
