<?xml version="1.0"?>
<svg xmlns="http://www.w3.org/2000/svg" id="Capa_1" enable-background="new 0 0 500.976 500.976" height="512px" viewBox="0 0 500.976 500.976" width="512px"><path d="m493.476 141.098c4.142 0 7.5-3.358 7.5-7.5v-23.945c0-13.734-11.173-24.908-24.907-24.908h-358.7c-4.142 0-7.5 3.358-7.5 7.5s3.358 7.5 7.5 7.5h64.77v59.882c-46.778 3.826-83.673 43.113-83.673 90.86s36.896 87.034 83.673 90.86v59.882h-116.071c-4.142 0-7.5 3.358-7.5 7.5s3.358 7.5 7.5 7.5h410c13.734 0 24.907-11.173 24.907-24.908v-227.723c0-4.142-3.358-7.5-7.5-7.5s-7.5 3.358-7.5 7.5v227.724c0 5.463-4.444 9.908-9.907 9.908h-278.93v-59.883c46.774-3.829 83.667-43.114 83.667-90.859s-36.892-87.03-83.667-90.859v-59.883h278.931c5.463 0 9.907 4.444 9.907 9.908v23.945c0 4.141 3.357 7.499 7.5 7.499zm-227.672 109.39c0 42-34.17 76.17-76.17 76.17s-76.17-34.17-76.17-76.17 34.17-76.17 76.17-76.17 76.17 34.17 76.17 76.17z" fill="#FFFFFF"/><path d="m36.068 401.23h-11.161c-5.463 0-9.907-4.444-9.907-9.908v-281.669c0-5.463 4.444-9.908 9.907-9.908h62.461c4.142 0 7.5-3.358 7.5-7.5s-3.358-7.5-7.5-7.5h-62.461c-13.734.001-24.907 11.174-24.907 24.908v281.669c0 13.734 11.173 24.908 24.907 24.908h11.161c4.142 0 7.5-3.358 7.5-7.5s-3.358-7.5-7.5-7.5z" fill="#FFFFFF"/><path d="m138.391 205.668v57.896c0 28.256 22.988 51.244 51.244 51.244s51.244-22.988 51.244-51.244v-57.896c0-4.142-3.358-7.5-7.5-7.5h-87.487c-4.143 0-7.501 3.358-7.501 7.5zm15 7.5h72.487v50.396c0 19.985-16.259 36.244-36.244 36.244s-36.244-16.259-36.244-36.244v-50.396z" fill="#FFFFFF"/><path d="m169.997 263.989c3.934 0 7.123-3.189 7.123-7.123v-6.79c0-1.457-1.181-2.638-2.638-2.638h-8.971c-1.457 0-2.638 1.181-2.638 2.638v6.79c.001 3.934 3.19 7.123 7.124 7.123z" fill="#FFFFFF"/><path d="m189.634 263.989c3.934 0 7.123-3.189 7.123-7.123v-6.79c0-1.457-1.181-2.638-2.638-2.638h-8.971c-1.457 0-2.638 1.181-2.638 2.638v6.79c.001 3.934 3.19 7.123 7.124 7.123z" fill="#FFFFFF"/><path d="m189.634 241.293c3.934 0 7.123-3.189 7.123-7.123v-6.79c0-1.457-1.181-2.638-2.638-2.638h-8.971c-1.457 0-2.638 1.181-2.638 2.638v6.79c.001 3.934 3.19 7.123 7.124 7.123z" fill="#FFFFFF"/><path d="m189.634 286.686c3.934 0 7.123-3.189 7.123-7.123v-6.79c0-1.457-1.181-2.638-2.638-2.638h-8.971c-1.457 0-2.638 1.181-2.638 2.638v6.79c.001 3.934 3.19 7.123 7.124 7.123z" fill="#FFFFFF"/><path d="m209.272 263.989c3.934 0 7.123-3.189 7.123-7.123v-6.79c0-1.457-1.181-2.638-2.638-2.638h-8.971c-1.457 0-2.638 1.181-2.638 2.638v6.79c0 3.934 3.19 7.123 7.124 7.123z" fill="#FFFFFF"/></svg>
