<?xml version="1.0"?>
<svg xmlns="http://www.w3.org/2000/svg" id="Layer_1_1_" enable-background="new 0 0 64 64" height="512px" viewBox="0 0 64 64" width="512px"><path d="m13 61c0 .55225.44727 1 1 1h25c.55273 0 1-.44775 1-1v-4h12c.55273 0 1-.44775 1-1v-12h6c.30176 0 .58789-.13623.77734-.37109.19043-.23486.26367-.54297.2002-.83838l-2.97754-13.89746c-.03027-7.63135-3.30664-14.92188-8.99902-20.01709-5.79785-5.18994-13.28906-7.57031-21.08789-6.7041-12.52344 1.39111-22.52247 11.50878-23.77442 24.05761-.65332 6.54443 1.0625 13.07129 4.83301 18.37793 3.29004 4.62988 5.02832 10.29834 5.02832 16.39258zm-7.87109-34.57178c1.15918-11.61572 10.41308-20.98095 22.00488-22.26904 7.23145-.7998 14.16504 1.40186 19.5332 6.20703 5.2959 4.74024 8.33301 11.53174 8.33301 18.63379 0 .07031.00781.14062.02246.20947l2.74024 12.79053h-5.7627c-.55273 0-1 .44775-1 1v12h-12-4v2h3v3h-23.01465c-.18164-6.13232-2.0332-11.83594-5.38281-16.55078-3.49024-4.9126-5.0791-10.95752-4.47363-17.021z" fill="#FFFFFF"/><path d="m35.82715 30.72412-.74316-1.77588c.16016-.3291.30176-.67139.42285-1.02393l1.78418-.73193c.33301-.13672.56641-.44238.6123-.79932.06641-.52148.09668-.96386.09668-1.39306s-.03027-.87158-.09668-1.39307c-.0459-.35693-.2793-.6626-.6123-.79932l-1.78418-.73193c-.12109-.35205-.26172-.69434-.42188-1.02393l.74219-1.77588c.13867-.33252.08789-.71338-.13281-.99805-.57129-.73828-1.23438-1.40186-1.97168-1.97266-.28516-.22168-.66797-.27051-.99805-.13232l-1.77637.74268c-.33008-.16016-.67188-.30127-1.02344-.42188l-.73242-1.78418c-.13672-.3335-.44141-.56738-.79883-.61279-1.04297-.13184-1.74414-.13184-2.78711 0-.35742.04541-.66211.2793-.79883.61279l-.73242 1.78418c-.35156.12061-.69336.26172-1.02344.42188l-1.77637-.74268c-.33105-.13818-.71387-.08936-.99805.13232-.7373.57129-1.40039 1.23438-1.97168 1.97168-.2207.28467-.27148.66602-.13281.99854l.74316 1.77588c-.16016.32959-.30176.67188-.42285 1.02441l-1.78418.73193c-.33301.13672-.56641.44238-.6123.79932-.0664.5215-.09667.96388-.09667 1.39308s.03027.87158.09668 1.39307c.0459.35693.2793.6626.6123.79932l1.78418.73193c.12109.35205.26172.69434.42188 1.02393l-.74219 1.77588c-.13867.33252-.08789.71338.13281.99805.57129.73828 1.23438 1.40186 1.97168 1.97266.28418.22119.66699.27002.99805.13232l1.77637-.74268c.33008.16016.67188.30127 1.02344.42188l.73242 1.78418c.13672.3335.44141.56738.79883.61279.52148.06591.96386.09667 1.39355.09667s.87207-.03076 1.39355-.09668c.35742-.04541.66211-.2793.79883-.61279l.73242-1.78418c.35254-.12061.69434-.26172 1.02344-.42188l1.77637.74268c.33008.1377.71289.08887.99805-.13232.7373-.5708 1.40039-1.23438 1.97168-1.97266.2207-.28467.27148-.66602.13281-.99805zm-1.51465-4.47217c-.28418.1167-.49902.35742-.58203.65283-.15234.53516-.36133 1.04248-.62207 1.50684-.15039.26855-.16895.5918-.05078.87549l.69141 1.65186c-.25293.28711-.52344.55762-.80957.81006l-1.65234-.69092c-.28418-.11816-.60645-.1001-.875.05078-.46484.26074-.97168.46973-1.50684.62158-.2959.0835-.53613.29834-.65234.58252l-.68359 1.66504c-.40039.0293-.73828.0293-1.13867 0l-.68359-1.66504c-.11621-.28418-.35645-.49902-.65234-.58252-.5332-.15137-1.04004-.36084-1.50781-.62207-.26953-.14941-.58984-.16846-.87402-.05029l-1.65234.69092c-.28613-.25244-.55664-.52344-.80957-.81006l.69043-1.65186c.11816-.28369.09961-.60596-.0498-.87402-.26172-.46631-.4707-.97363-.62207-1.5083-.08301-.29541-.29785-.53613-.58203-.65283l-1.66504-.68311c-.01566-.2002-.0225-.38721-.0225-.56885s.00684-.36865.02246-.56885l1.66504-.68311c.28418-.1167.49902-.35742.58203-.65283.15234-.53516.36133-1.04248.62207-1.50684.15039-.26855.16895-.59131.05078-.87549l-.69141-1.65234c.25293-.28662.52344-.55713.80957-.80957l1.65234.69092c.28418.11816.60449.09912.87402-.05029.46777-.26123.97461-.4707 1.50781-.62207.2959-.0835.53613-.29834.65234-.58252l.68359-1.66504c.40039-.0293.73828-.0293 1.13867 0l.68359 1.66504c.11621.28418.35645.49902.65234.58252.5332.15137 1.04004.36084 1.50781.62207.26758.14941.58984.16846.87402.05029l1.65234-.69092c.28613.25244.55664.52344.80957.81006l-.69043 1.65186c-.11816.28369-.09961.60596.0498.87402.26172.46631.4707.97363.62207 1.5083.08301.29541.29785.53613.58203.65283l1.66504.68311c.01567.2002.02251.38721.02251.56885s-.00684.36865-.02246.56885z" fill="#FFFFFF"/><path d="m27 20c-2.75684 0-5 2.24316-5 5s2.24316 5 5 5 5-2.24316 5-5-2.24316-5-5-5zm0 8c-1.6543 0-3-1.3457-3-3s1.3457-3 3-3 3 1.3457 3 3-1.3457 3-3 3z" fill="#FFFFFF"/><path d="m35.29883 36.27734 1.1875 1.60938c1.14453-.84375 2.17285-1.83691 3.05762-2.95264l-1.56641-1.24316c-.77539.97754-1.67676 1.84765-2.67871 2.58642z" fill="#FFFFFF"/><path d="m12.75098 32.28271 1.7793-.91211c-.43066-.8418-.77637-1.72852-1.02734-2.63672-.33399-1.20898-.50294-2.46533-.50294-3.73388 0-7.71973 6.28027-14 14-14h7.58594l-1.29297 1.29297 1.41406 1.41406 3-3c.39062-.39062.39062-1.02344 0-1.41406l-3-3-1.41406 1.41406 1.29297 1.29297h-7.58594c-8.82227 0-16 7.17773-16 16 0 1.44824.19336 2.88379.5752 4.26611.2871 1.03907.68261 2.05371 1.17578 3.0166z" fill="#FFFFFF"/><path d="m42.4248 29.26611-1.92773-.53223c-.33105 1.2002-.82324 2.35107-1.46094 3.42139l1.7168 1.02441c.73047-1.22363 1.29297-2.54052 1.67187-3.91357z" fill="#FFFFFF"/><path d="m15.48926 32.97021-1.64453 1.13965c.81055 1.16846 1.77344 2.22559 2.86426 3.14258l1.28711-1.53125c-.95508-.80273-1.79883-1.72803-2.50684-2.75098z" fill="#FFFFFF"/><path d="m30.25586 38.61963.46289 1.94531c1.38477-.3291 2.71973-.84424 3.9707-1.53076l-.96289-1.75293c-1.09277.6001-2.26074 1.05029-3.4707 1.33838z" fill="#FFFFFF"/><path d="m18.42871 38.51221c1.20312.76514 2.50293 1.36523 3.86328 1.78369l.58789-1.91211c-1.18945-.36523-2.3252-.89014-3.37695-1.55908z" fill="#FFFFFF"/><path d="m28.61816 40.91943-.20117-1.99023c-.46484.04687-.93652.0708-1.40429.0708-.77637.03662-1.55664-.06299-2.31641-.18848l-.32617 1.97266c.86816.14355 1.79492.2041 2.64355.21582.53321 0 1.07227-.02734 1.60449-.08057z" fill="#FFFFFF"/><path d="m23 55h2v2h-2z" fill="#FFFFFF"/><path d="m27 55h2v2h-2z" fill="#FFFFFF"/><path d="m31 55h2v2h-2z" fill="#FFFFFF"/></svg>
